<?xml version="1.0" standalone="no"?><!DOCTYPE svg PUBLIC "-//W3C//DTD SVG 1.1//EN" "http://www.w3.org/Graphics/SVG/1.1/DTD/svg11.dtd"><svg t="1668486492903" class="icon" viewBox="0 0 1024 1024" version="1.1" xmlns="http://www.w3.org/2000/svg" p-id="4789" xmlns:xlink="http://www.w3.org/1999/xlink" width="200" height="200"><path d="M396.7488 557.9776H120.5248C82.432 557.9776 51.2 588.7488 51.2 627.2v276.224C51.2 941.568 82.0224 972.8 120.5248 972.8h276.224c37.9904 0 69.2736-30.8224 69.2736-69.3248v-276.224a69.632 69.632 0 0 0-69.2736-69.2736zM903.4752 51.2h-276.224c-37.9904 0-69.2736 30.5664-69.2736 69.3248v276.224c0 37.9904 30.7712 69.2736 69.2736 69.2736h276.224C941.568 466.0224 972.8 435.2512 972.8 396.8V120.5248A68.5568 68.5568 0 0 0 903.4752 51.2zM396.8 51.2H120.5248C82.432 51.2 51.2 81.7664 51.2 120.5248v276.224c0 37.9904 30.8224 69.2736 69.3248 69.2736h276.224c37.9904 0 69.2736-30.7712 69.2736-69.2736V120.5248C466.0224 81.7664 434.7904 51.2 396.8 51.2z m506.7264 506.7776h-276.224c-37.9904 0-69.2736 30.7712-69.2736 69.2736v276.224c0 38.0416 30.7712 69.3248 69.2736 69.3248h276.224C941.568 972.8 972.8 941.9776 972.8 903.4752v-276.224a69.0176 69.0176 0 0 0-69.3248-69.2736z" p-id="4790" fill="#1296db"></path></svg>