<?xml version="1.0" standalone="no"?><!DOCTYPE svg PUBLIC "-//W3C//DTD SVG 1.1//EN" "http://www.w3.org/Graphics/SVG/1.1/DTD/svg11.dtd"><svg t="1668656833051" class="icon" viewBox="0 0 1024 1024" version="1.1" xmlns="http://www.w3.org/2000/svg" p-id="4251" xmlns:xlink="http://www.w3.org/1999/xlink" width="200" height="200"><path d="M806.4 209.92H56.32c-20.992 0-38.4-17.408-38.4-38.4S35.328 133.12 56.32 133.12h750.08c20.992 0 38.4 17.408 38.4 38.4s-17.408 38.4-38.4 38.4zM391.68 532.48H56.32c-20.992 0-38.4-17.408-38.4-38.4S35.328 455.68 56.32 455.68h335.36c20.992 0 38.4 17.408 38.4 38.4s-17.408 38.4-38.4 38.4zM391.68 849.92l-335.36-1.024c-20.992 0-38.4-17.408-38.4-38.4s17.408-38.4 38.4-38.4l335.36 1.024c20.992 0 38.4 17.408 38.4 38.4 0 21.504-17.408 38.4-38.4 38.4z" p-id="4252" fill="#1296db"></path><path d="M752.64 409.6c-141.312 0-256 114.688-256 256s114.688 256 256 256 256-114.688 256-256-114.688-256-256-256z m137.216 377.856c-7.68 9.216-18.432 13.824-29.696 13.824-8.704 0-17.408-3.072-24.576-8.704l-121.344-100.352V496.64c0-20.992 17.408-38.4 38.4-38.4s38.4 17.408 38.4 38.4v159.232l93.696 77.312c16.384 13.824 18.432 37.888 5.12 54.272z" p-id="4253" fill="#1296db"></path></svg>