<?xml version="1.0" standalone="no"?><!DOCTYPE svg PUBLIC "-//W3C//DTD SVG 1.1//EN" "http://www.w3.org/Graphics/SVG/1.1/DTD/svg11.dtd"><svg t="1668486820431" class="icon" viewBox="0 0 1024 1024" version="1.1" xmlns="http://www.w3.org/2000/svg" p-id="9805" xmlns:xlink="http://www.w3.org/1999/xlink" width="200" height="200"><path d="M825.856 566.272c-16.384 0-29.184-13.312-29.184-29.184l0-42.496c0-156.672-127.488-284.16-284.16-284.16-156.672 0-284.16 127.488-284.16 284.16l0 42.496c0 16.384-13.312 29.184-29.184 29.184-16.384 0-29.184-13.312-29.184-29.184l0-42.496c0-188.928 153.6-343.04 343.04-343.04s343.04 154.112 343.04 343.04l0 42.496C855.04 552.96 841.728 566.272 825.856 566.272z" p-id="9806" fill="#1296db"></path><path d="M834.56 839.168 189.44 839.168c-48.64 0-88.064-39.424-88.064-88.064 0-16.384 13.312-29.184 29.184-29.184s29.184 13.312 29.184 29.184c0 16.384 13.312 29.184 29.184 29.184L834.56 780.288c16.384 0 29.184-13.312 29.184-29.184 0-16.384 13.312-29.184 29.184-29.184s29.184 13.312 29.184 29.184C922.112 799.744 882.688 839.168 834.56 839.168z" p-id="9807" fill="#1296db"></path><path d="M512 934.912c-34.304 0-65.536-18.432-82.944-47.616-8.192-13.824-3.072-31.744 10.752-39.936 13.824-8.192 31.744-3.072 39.936 10.752 6.656 11.264 18.944 18.432 32.256 18.432 13.312 0 25.088-6.656 31.744-17.92 8.192-13.824 26.112-18.432 39.936-10.24 13.824 8.192 18.432 26.112 10.24 39.936C577.024 916.992 545.28 934.912 512 934.912z" p-id="9808" fill="#1296db"></path><path d="M524.8 147.968 466.432 147.968c-16.384 0-29.184-13.312-29.184-29.184s13.312-29.184 29.184-29.184l58.368 0c16.384 0 29.184 13.312 29.184 29.184S541.184 147.968 524.8 147.968z" p-id="9809" fill="#1296db"></path><path d="M736.256 656.384c-16.384 0-29.184-13.312-29.184-29.184L707.072 480.768c0-16.384 13.312-29.184 29.184-29.184s29.184 13.312 29.184 29.184l0 146.432C765.44 643.584 752.128 656.384 736.256 656.384z" p-id="9810" fill="#1296db"></path><path d="M892.928 780.288c-8.704 0-16.896-3.584-22.528-10.752l-67.072-81.92c-4.096-5.12-6.656-11.776-6.656-18.432l0-125.44c0-16.384 13.312-29.184 29.184-29.184s29.184 13.312 29.184 29.184l0 115.2 60.416 73.728c10.24 12.288 8.704 30.72-4.096 41.472C906.24 778.24 899.584 780.288 892.928 780.288z" p-id="9811" fill="#1296db"></path><path d="M131.072 780.288c-6.656 0-13.312-2.048-18.432-6.656-12.288-10.24-14.336-28.672-4.096-41.472L168.96 658.944l0-115.2c0-16.384 13.312-29.184 29.184-29.184 16.384 0 29.184 13.312 29.184 29.184l0 125.44c0 6.656-2.56 13.312-6.656 18.432l-67.072 81.92C147.968 776.704 139.776 780.288 131.072 780.288z" p-id="9812" fill="#1296db"></path></svg>