<?xml version="1.0" standalone="no"?><!DOCTYPE svg PUBLIC "-//W3C//DTD SVG 1.1//EN" "http://www.w3.org/Graphics/SVG/1.1/DTD/svg11.dtd"><svg t="1668487150592" class="icon" viewBox="0 0 1031 1024" version="1.1" xmlns="http://www.w3.org/2000/svg" p-id="14263" xmlns:xlink="http://www.w3.org/1999/xlink" width="201.3671875" height="200"><path d="M128.847094 1024A129.202429 129.202429 0 0 1 0 895.178287V128.872475A129.21512 129.21512 0 0 1 128.847094 0h533.00285A129.189739 129.189739 0 0 1 790.7478 128.872475v234.572016l79.848903-79.950427a35.368546 35.368546 0 0 1 25.292255-10.292032 40.102119 40.102119 0 0 1 28.134936 11.840278l96.080109 96.168943c15.228653 15.228653 15.901252 39.17571 1.611699 53.490643L777.524253 678.829892h13.223547v216.348395A129.189739 129.189739 0 0 1 661.875325 1024h-533.00285z m0-958.935581a63.998414 63.998414 0 0 0-63.769984 63.795365v766.318503a63.947652 63.947652 0 0 0 63.769984 63.795365h533.00285a63.934961 63.934961 0 0 0 63.833437-63.795365V730.645384l-158.784087 158.758706-142.781312 9.391002a4.302094 4.302094 0 0 1-0.571074 0h-0.304573a17.068782 17.068782 0 0 1-16.78959-17.96981l9.352931-142.51481 309.877705-309.852324V128.872475a63.985723 63.985723 0 0 0-63.795365-63.808056z m350.284397 701.939373l-4.149808 63.224291 63.22429-4.149808 417.404685-417.379304-59.036411-59.099863zM188.073863 635.237873a32.525864 32.525864 0 1 1 0-65.051728h155.471855a32.525864 32.525864 0 1 1 0 65.051728z m0-181.411327a32.538555 32.538555 0 0 1 0-65.000967h259.14091a32.538555 32.538555 0 0 1 0 65.06442z m0-181.47478a32.538555 32.538555 0 0 1 0-65.000967h414.638146a32.538555 32.538555 0 0 1 0 65.06442z" p-id="14264" fill="#1296db"></path></svg>