<?xml version="1.0" standalone="no"?><!DOCTYPE svg PUBLIC "-//W3C//DTD SVG 1.1//EN" "http://www.w3.org/Graphics/SVG/1.1/DTD/svg11.dtd"><svg t="1668486986147" class="icon" viewBox="0 0 1024 1024" version="1.1" xmlns="http://www.w3.org/2000/svg" p-id="13266" xmlns:xlink="http://www.w3.org/1999/xlink" width="200" height="200"><path d="M911.68 0h-800a64 64 0 0 0-64 64v896a64 64 0 0 0 64 64h800a64 64 0 0 0 64-64V64a64 64 0 0 0-64-64z m0 960h-800V64h800z" p-id="13267" fill="#1296db"></path><path d="M271.68 304.64h472a32 32 0 1 0 0-64h-472a32 32 0 0 0 0 64z m0 234.88h408.64a32 32 0 0 0 0-64H271.68a32 32 0 1 0 0 64z m0 198.4h376.64a32 32 0 1 0 0-64H271.68a32 32 0 0 0 0 64z" p-id="13268" fill="#1296db"></path></svg>